<?xml version="1.0" encoding="utf-8"?>
<!-- Svg Vector Icons : http://www.onlinewebfonts.com/icon -->
<!DOCTYPE svg PUBLIC "-//W3C//DTD SVG 1.1//EN" "http://www.w3.org/Graphics/SVG/1.1/DTD/svg11.dtd">
<svg version="1.1" xmlns="http://www.w3.org/2000/svg" xmlns:xlink="http://www.w3.org/1999/xlink" x="0px" y="0px" viewBox="0 0 1000 1000" enable-background="new 0 0 1000 1000" xml:space="preserve">
<metadata> Svg Vector Icons : http://www.onlinewebfonts.com/icon </metadata>
<g><path d="M500,10c270.6,0,490,219.4,490,490c0,270.6-219.4,490-490,490C229.4,990,10,770.6,10,500C10,229.4,229.4,10,500,10L500,10z M606.8,637.6L606.8,637.6V330.3c0-2.9-2.2-5.2-5-5.2H396.2c-2.8,0-5,2.3-5,5.2v307.3c0,2.9,2.2,5.2,5,5.2h205.6C604.5,642.8,606.8,640.5,606.8,637.6L606.8,637.6z M550.1,92.6L550.1,92.6c-6.4-2-119.5,66.3-126.2,88.6c-6.7,22.2-4.1,128.2-4.1,128.2h4.1h147.5v-174C571.4,135.4,556.4,94.6,550.1,92.6L550.1,92.6z M454.2,210L454.2,210c26.3,13.8,99.2-64.4,102.5-75.9c0,0-69.5,65.2-96.4,65c-7.2-0.1-25.7-17.8-25.7-17.8S427.9,196.2,454.2,210L454.2,210z M623.9,643.8L623.9,643.8H376.1c-3.2,0-5.8,3.2-5.8,7.2v249.2c0,4,2.6,7.2,5.8,7.2h247.7c3.2,0,5.8-3.2,5.8-7.2V651C629.7,647,627.1,643.8,623.9,643.8L623.9,643.8z M601.7,881.9L601.7,881.9V671c0-3.7-2-6.8-4.4-6.8h-12.2c-2.4,0-4.4,3.1-4.4,6.8v210.8c0,3.8,2,6.8,4.4,6.8h12.2C599.7,888.7,601.7,885.6,601.7,881.9z"/></g>
</svg>